<?xml version="1.0" encoding="iso-8859-1" standalone="no"?> 
<?xml-stylesheet href="script.css" type="text/css"?> 
<svg xmlns="http://www.w3.org/2000/svg" xmlns:xlink="http://www.w3.org/1999/xlink" width="391.61308pt" height="163.99104pt" viewBox="-10.86366 -10.86366 391.61308 163.99104 "> 
<g transform="translate(0, 153.12738 ) scale(1,-1) translate(0,10.86366 )"> 
     <g> 
 <g stroke="rgb(0.0%,0.0%,0.0%)"> 
 <g fill="rgb(0.0%,0.0%,0.0%)"> 
 <g stroke-width="0.4pt"> 
 <g> 
 <g stroke-width="1.2pt"> 
 <g> 
 <path d=" M  10.26367 0.0 C  10.26367 5.66853 5.66853 10.26367 0.0 10.26367 C  -5.66853 10.26367 -10.26367 5.66853 -10.26367 0.0 C  -10.26367 -5.66853 -5.66853 -10.26367 0.0 -10.26367 C  5.66853 -10.26367 10.26367 -5.66853 10.26367 0.0 Z M  0.0 0.0  " style="fill:none"/> 
 <g> 
 <g transform="matrix(1.0,0.0,0.0,1.0,-4.84607,-1.40279)"> 
 <g fill="rgb(0.0%,0.0%,0.0%)"> 
 <text style="stroke:none" transform="scale(1,-1) translate(4.84607,0)" text-anchor="middle"  font-size="10"> 
<tspan font-family="cmmi" font-size="10">v</tspan><tspan baseline-shift="sub"><tspan font-family="cmr" font-size="7">1</tspan></tspan></text> 
</g> 
 </g> 
 </g> 
 </g> 
 <g> 
 <path d=" M  10.26367 56.90549 C  10.26367 62.57402 5.66853 67.16916 0.0 67.16916 C  -5.66853 67.16916 -10.26367 62.57402 -10.26367 56.90549 C  -10.26367 51.23695 -5.66853 46.64182 0.0 46.64182 C  5.66853 46.64182 10.26367 51.23695 10.26367 56.90549 Z M  0.0 56.90549  " style="fill:none"/> 
 <g> 
 <g transform="matrix(1.0,0.0,0.0,1.0,-4.84607,55.5027)"> 
 <g fill="rgb(0.0%,0.0%,0.0%)"> 
 <text style="stroke:none" transform="scale(1,-1) translate(4.84607,0)" text-anchor="middle"  font-size="10"> 
<tspan font-family="cmmi" font-size="10">v</tspan><tspan baseline-shift="sub"><tspan font-family="cmr" font-size="7">2</tspan></tspan></text> 
</g> 
 </g> 
 </g> 
 </g> 
 <g> 
 <path d=" M  10.26367 113.81097 C  10.26367 119.4795 5.66853 124.07465 0.0 124.07465 C  -5.66853 124.07465 -10.26367 119.4795 -10.26367 113.81097 C  -10.26367 108.14244 -5.66853 103.5473 0.0 103.5473 C  5.66853 103.5473 10.26367 108.14244 10.26367 113.81097 Z M  0.0 113.81097  " style="fill:none"/> 
 <g> 
 <g transform="matrix(1.0,0.0,0.0,1.0,-4.84607,112.40819)"> 
 <g fill="rgb(0.0%,0.0%,0.0%)"> 
 <text style="stroke:none" transform="scale(1,-1) translate(4.84607,0)" text-anchor="middle"  font-size="10"> 
<tspan font-family="cmmi" font-size="10">v</tspan><tspan baseline-shift="sub"><tspan font-family="cmr" font-size="7">3</tspan></tspan></text> 
</g> 
 </g> 
 </g> 
 </g> 
 <g> 
 <path d=" M  67.16916 0.0 C  67.16916 5.66853 62.57402 10.26367 56.90549 10.26367 C  51.23695 10.26367 46.64182 5.66853 46.64182 0.0 C  46.64182 -5.66853 51.23695 -10.26367 56.90549 -10.26367 C  62.57402 -10.26367 67.16916 -5.66853 67.16916 0.0 Z M  56.90549 0.0  " style="fill:none"/> 
 <g> 
 <g transform="matrix(1.0,0.0,0.0,1.0,52.05942,-1.40279)"> 
 <g fill="rgb(0.0%,0.0%,0.0%)"> 
 <text style="stroke:none" transform="scale(1,-1) translate(4.84607,0)" text-anchor="middle"  font-size="10"> 
<tspan font-family="cmmi" font-size="10">v</tspan><tspan baseline-shift="sub"><tspan font-family="cmr" font-size="7">4</tspan></tspan></text> 
</g> 
 </g> 
 </g> 
 </g> 
 <g> 
 <path d=" M  67.16916 56.90549 C  67.16916 62.57402 62.57402 67.16916 56.90549 67.16916 C  51.23695 67.16916 46.64182 62.57402 46.64182 56.90549 C  46.64182 51.23695 51.23695 46.64182 56.90549 46.64182 C  62.57402 46.64182 67.16916 51.23695 67.16916 56.90549 Z M  56.90549 56.90549  " style="fill:none"/> 
 <g> 
 <g transform="matrix(1.0,0.0,0.0,1.0,52.05942,55.5027)"> 
 <g fill="rgb(0.0%,0.0%,0.0%)"> 
 <text style="stroke:none" transform="scale(1,-1) translate(4.84607,0)" text-anchor="middle"  font-size="10"> 
<tspan font-family="cmmi" font-size="10">v</tspan><tspan baseline-shift="sub"><tspan font-family="cmr" font-size="7">5</tspan></tspan></text> 
</g> 
 </g> 
 </g> 
 </g> 
 <g> 
 <path d=" M  67.16916 113.81097 C  67.16916 119.4795 62.57402 124.07465 56.90549 124.07465 C  51.23695 124.07465 46.64182 119.4795 46.64182 113.81097 C  46.64182 108.14244 51.23695 103.5473 56.90549 103.5473 C  62.57402 103.5473 67.16916 108.14244 67.16916 113.81097 Z M  56.90549 113.81097  " style="fill:none"/> 
 <g> 
 <g transform="matrix(1.0,0.0,0.0,1.0,52.05942,112.40819)"> 
 <g fill="rgb(0.0%,0.0%,0.0%)"> 
 <text style="stroke:none" transform="scale(1,-1) translate(4.84607,0)" text-anchor="middle"  font-size="10"> 
<tspan font-family="cmmi" font-size="10">v</tspan><tspan baseline-shift="sub"><tspan font-family="cmr" font-size="7">6</tspan></tspan></text> 
</g> 
 </g> 
 </g> 
 </g> 
 <g> 
 <path d=" M  124.07465 0.0 C  124.07465 5.66853 119.4795 10.26367 113.81097 10.26367 C  108.14244 10.26367 103.5473 5.66853 103.5473 0.0 C  103.5473 -5.66853 108.14244 -10.26367 113.81097 -10.26367 C  119.4795 -10.26367 124.07465 -5.66853 124.07465 0.0 Z M  113.81097 0.0  " style="fill:none"/> 
 <g> 
 <g transform="matrix(1.0,0.0,0.0,1.0,108.9649,-1.40279)"> 
 <g fill="rgb(0.0%,0.0%,0.0%)"> 
 <text style="stroke:none" transform="scale(1,-1) translate(4.84607,0)" text-anchor="middle"  font-size="10"> 
<tspan font-family="cmmi" font-size="10">v</tspan><tspan baseline-shift="sub"><tspan font-family="cmr" font-size="7">7</tspan></tspan></text> 
</g> 
 </g> 
 </g> 
 </g> 
 <g> 
 <path d=" M  124.07465 56.90549 C  124.07465 62.57402 119.4795 67.16916 113.81097 67.16916 C  108.14244 67.16916 103.5473 62.57402 103.5473 56.90549 C  103.5473 51.23695 108.14244 46.64182 113.81097 46.64182 C  119.4795 46.64182 124.07465 51.23695 124.07465 56.90549 Z M  113.81097 56.90549  " style="fill:none"/> 
 <g> 
 <g transform="matrix(1.0,0.0,0.0,1.0,108.9649,55.5027)"> 
 <g fill="rgb(0.0%,0.0%,0.0%)"> 
 <text style="stroke:none" transform="scale(1,-1) translate(4.84607,0)" text-anchor="middle"  font-size="10"> 
<tspan font-family="cmmi" font-size="10">v</tspan><tspan baseline-shift="sub"><tspan font-family="cmr" font-size="7">8</tspan></tspan></text> 
</g> 
 </g> 
 </g> 
 </g> 
 <g> 
 <path d=" M  124.07465 113.81097 C  124.07465 119.4795 119.4795 124.07465 113.81097 124.07465 C  108.14244 124.07465 103.5473 119.4795 103.5473 113.81097 C  103.5473 108.14244 108.14244 103.5473 113.81097 103.5473 C  119.4795 103.5473 124.07465 108.14244 124.07465 113.81097 Z M  113.81097 113.81097  " style="fill:none"/> 
 <g> 
 <g transform="matrix(1.0,0.0,0.0,1.0,108.9649,112.40819)"> 
 <g fill="rgb(0.0%,0.0%,0.0%)"> 
 <text style="stroke:none" transform="scale(1,-1) translate(4.84607,0)" text-anchor="middle"  font-size="10"> 
<tspan font-family="cmmi" font-size="10">v</tspan><tspan baseline-shift="sub"><tspan font-family="cmr" font-size="7">9</tspan></tspan></text> 
</g> 
 </g> 
 </g> 
 </g> 
 <g> 
 <path d=" M  0.0 10.86366 L  0.0 46.04182  " style="fill:none"/> 
 </g> 
 <g> 
 <path d=" M  10.86366 0.0 L  46.04182 0.0  " style="fill:none"/> 
 </g> 
 <g> 
 <path d=" M  0.0 67.76915 L  0.0 102.94731  " style="fill:none"/> 
 </g> 
 <g> 
 <path d=" M  10.86366 56.90549 L  46.04182 56.90549  " style="fill:none"/> 
 </g> 
 <g> 
 <path d=" M  10.86366 113.81097 L  46.04182 113.81097  " style="fill:none"/> 
 </g> 
 <g> 
 <path d=" M  56.90549 10.86366 L  56.90549 46.04182  " style="fill:none"/> 
 </g> 
 <g> 
 <path d=" M  67.76915 0.0 L  102.94731 0.0  " style="fill:none"/> 
 </g> 
 <g> 
 <path d=" M  113.81097 10.86366 L  113.81097 46.04182  " style="fill:none"/> 
 </g> 
 <g> 
 <path d=" M  56.90549 67.76915 L  56.90549 102.94731  " style="fill:none"/> 
 </g> 
 <g> 
 <path d=" M  67.76915 56.90549 L  102.94731 56.90549  " style="fill:none"/> 
 </g> 
 <g> 
 <path d=" M  67.76915 113.81097 L  102.94731 113.81097  " style="fill:none"/> 
 </g> 
 <g> 
 <path d=" M  113.81097 67.76915 L  113.81097 102.94731  " style="fill:none"/> 
 </g> 
 <g> 
 <g> 
 <path d=" M  237.88571 113.81097 C  237.88571 119.4795 233.29057 124.07465 227.62204 124.07465 C  221.9535 124.07465 217.35837 119.4795 217.35837 113.81097 C  217.35837 108.14244 221.9535 103.5473 227.62204 103.5473 C  233.29057 103.5473 237.88571 108.14244 237.88571 113.81097 Z M  227.62204 113.81097  " style="fill:none"/> 
 <g> 
 <g transform="matrix(1.0,0.0,0.0,1.0,222.77597,112.40819)"> 
 <g fill="rgb(0.0%,0.0%,0.0%)"> 
 <text style="stroke:none" transform="scale(1,-1) translate(4.84607,0)" text-anchor="middle"  font-size="10"> 
<tspan font-family="cmmi" font-size="10">v</tspan><tspan baseline-shift="sub"><tspan font-family="cmr" font-size="7">1</tspan></tspan></text> 
</g> 
 </g> 
 </g> 
 </g> 
 <g> 
 <path d=" M  266.33846 85.35823 C  266.33846 91.02676 261.74332 95.6219 256.07478 95.6219 C  250.40625 95.6219 245.81111 91.02676 245.81111 85.35823 C  245.81111 79.6897 250.40625 75.09456 256.07478 75.09456 C  261.74332 75.09456 266.33846 79.6897 266.33846 85.35823 Z M  256.07478 85.35823  " style="fill:none"/> 
 <g> 
 <g transform="matrix(1.0,0.0,0.0,1.0,251.22871,83.95544)"> 
 <g fill="rgb(0.0%,0.0%,0.0%)"> 
 <text style="stroke:none" transform="scale(1,-1) translate(4.84607,0)" text-anchor="middle"  font-size="10"> 
<tspan font-family="cmmi" font-size="10">v</tspan><tspan baseline-shift="sub"><tspan font-family="cmr" font-size="7">2</tspan></tspan></text> 
</g> 
 </g> 
 </g> 
 </g> 
 <g> 
 <path d=" M  380.14943 28.45274 C  380.14943 34.12128 375.55429 38.71642 369.88576 38.71642 C  364.21722 38.71642 359.62209 34.12128 359.62209 28.45274 C  359.62209 22.78421 364.21722 18.18907 369.88576 18.18907 C  375.55429 18.18907 380.14943 22.78421 380.14943 28.45274 Z M  369.88576 28.45274  " style="fill:none"/> 
 <g> 
 <g transform="matrix(1.0,0.0,0.0,1.0,365.03969,27.04996)"> 
 <g fill="rgb(0.0%,0.0%,0.0%)"> 
 <text style="stroke:none" transform="scale(1,-1) translate(4.84607,0)" text-anchor="middle"  font-size="10"> 
<tspan font-family="cmmi" font-size="10">v</tspan><tspan baseline-shift="sub"><tspan font-family="cmr" font-size="7">3</tspan></tspan></text> 
</g> 
 </g> 
 </g> 
 </g> 
 <g> 
 <path d=" M  323.24394 142.26372 C  323.24394 147.93225 318.6488 152.52739 312.98027 152.52739 C  307.31174 152.52739 302.7166 147.93225 302.7166 142.26372 C  302.7166 136.59518 307.31174 132.00005 312.98027 132.00005 C  318.6488 132.00005 323.24394 136.59518 323.24394 142.26372 Z M  312.98027 142.26372  " style="fill:none"/> 
 <g> 
 <g transform="matrix(1.0,0.0,0.0,1.0,308.1342,140.86093)"> 
 <g fill="rgb(0.0%,0.0%,0.0%)"> 
 <text style="stroke:none" transform="scale(1,-1) translate(4.84607,0)" text-anchor="middle"  font-size="10"> 
<tspan font-family="cmmi" font-size="10">v</tspan><tspan baseline-shift="sub"><tspan font-family="cmr" font-size="7">4</tspan></tspan></text> 
</g> 
 </g> 
 </g> 
 </g> 
 <g> 
 <path d=" M  323.24394 0.0 C  323.24394 5.66853 318.6488 10.26367 312.98027 10.26367 C  307.31174 10.26367 302.7166 5.66853 302.7166 0.0 C  302.7166 -5.66853 307.31174 -10.26367 312.98027 -10.26367 C  318.6488 -10.26367 323.24394 -5.66853 323.24394 0.0 Z M  312.98027 0.0  " style="fill:none"/> 
 <g> 
 <g transform="matrix(1.0,0.0,0.0,1.0,308.1342,-1.40279)"> 
 <g fill="rgb(0.0%,0.0%,0.0%)"> 
 <text style="stroke:none" transform="scale(1,-1) translate(4.84607,0)" text-anchor="middle"  font-size="10"> 
<tspan font-family="cmmi" font-size="10">v</tspan><tspan baseline-shift="sub"><tspan font-family="cmr" font-size="7">5</tspan></tspan></text> 
</g> 
 </g> 
 </g> 
 </g> 
 <g> 
 <path d=" M  351.69669 113.81097 C  351.69669 119.4795 347.10155 124.07465 341.43301 124.07465 C  335.76448 124.07465 331.16934 119.4795 331.16934 113.81097 C  331.16934 108.14244 335.76448 103.5473 341.43301 103.5473 C  347.10155 103.5473 351.69669 108.14244 351.69669 113.81097 Z M  341.43301 113.81097  " style="fill:none"/> 
 <g> 
 <g transform="matrix(1.0,0.0,0.0,1.0,336.58694,112.40819)"> 
 <g fill="rgb(0.0%,0.0%,0.0%)"> 
 <text style="stroke:none" transform="scale(1,-1) translate(4.84607,0)" text-anchor="middle"  font-size="10"> 
<tspan font-family="cmmi" font-size="10">v</tspan><tspan baseline-shift="sub"><tspan font-family="cmr" font-size="7">6</tspan></tspan></text> 
</g> 
 </g> 
 </g> 
 </g> 
 <g> 
 <path d=" M  306.17212 99.5846 C  306.17212 105.25313 301.57698 109.84827 295.90845 109.84827 C  290.23991 109.84827 285.64478 105.25313 285.64478 99.5846 C  285.64478 93.91606 290.23991 89.32092 295.90845 89.32092 C  301.57698 89.32092 306.17212 93.91606 306.17212 99.5846 Z M  295.90845 99.5846  " style="fill:none"/> 
 <g> 
 <g transform="matrix(1.0,0.0,0.0,1.0,291.06238,98.18181)"> 
 <g fill="rgb(0.0%,0.0%,0.0%)"> 
 <text style="stroke:none" transform="scale(1,-1) translate(4.84607,0)" text-anchor="middle"  font-size="10"> 
<tspan font-family="cmmi" font-size="10">v</tspan><tspan baseline-shift="sub"><tspan font-family="cmr" font-size="7">7</tspan></tspan></text> 
</g> 
 </g> 
 </g> 
 </g> 
 <g> 
 <path d=" M  266.33846 142.26372 C  266.33846 147.93225 261.74332 152.52739 256.07478 152.52739 C  250.40625 152.52739 245.81111 147.93225 245.81111 142.26372 C  245.81111 136.59518 250.40625 132.00005 256.07478 132.00005 C  261.74332 132.00005 266.33846 136.59518 266.33846 142.26372 Z M  256.07478 142.26372  " style="fill:none"/> 
 <g> 
 <g transform="matrix(1.0,0.0,0.0,1.0,251.22871,140.86093)"> 
 <g fill="rgb(0.0%,0.0%,0.0%)"> 
 <text style="stroke:none" transform="scale(1,-1) translate(4.84607,0)" text-anchor="middle"  font-size="10"> 
<tspan font-family="cmmi" font-size="10">v</tspan><tspan baseline-shift="sub"><tspan font-family="cmr" font-size="7">8</tspan></tspan></text> 
</g> 
 </g> 
 </g> 
 </g> 
 <g> 
 <path d=" M  237.88571 28.45274 C  237.88571 34.12128 233.29057 38.71642 227.62204 38.71642 C  221.9535 38.71642 217.35837 34.12128 217.35837 28.45274 C  217.35837 22.78421 221.9535 18.18907 227.62204 18.18907 C  233.29057 18.18907 237.88571 22.78421 237.88571 28.45274 Z M  227.62204 28.45274  " style="fill:none"/> 
 <g> 
 <g transform="matrix(1.0,0.0,0.0,1.0,222.77597,27.04996)"> 
 <g fill="rgb(0.0%,0.0%,0.0%)"> 
 <text style="stroke:none" transform="scale(1,-1) translate(4.84607,0)" text-anchor="middle"  font-size="10"> 
<tspan font-family="cmmi" font-size="10">v</tspan><tspan baseline-shift="sub"><tspan font-family="cmr" font-size="7">9</tspan></tspan></text> 
</g> 
 </g> 
 </g> 
 </g> 
 <g> 
 <path d=" M  235.30414 106.12921 L  248.39285 93.04  " style="fill:none"/> 
 </g> 
 <g> 
 <path d=" M  237.9385 117.24979 L  302.6638 138.8249  " style="fill:none"/> 
 </g> 
 <g> 
 <path d=" M  265.83029 80.48056 L  360.16904 33.31134  " style="fill:none"/> 
 </g> 
 <g> 
 <path d=" M  262.11945 76.29149 L  306.93561 9.06674  " style="fill:none"/> 
 </g> 
 <g> 
 <path d=" M  366.44695 38.76904 L  344.87183 103.49467  " style="fill:none"/> 
 </g> 
 <g> 
 <path d=" M  312.98027 131.40005 L  312.98027 10.86366  " style="fill:none"/> 
 </g> 
 <g> 
 <path d=" M  308.9316 132.14253 L  299.95695 109.70578  " style="fill:none"/> 
 </g> 
 <g> 
 <path d=" M  288.48378 107.53972 L  263.49962 134.3086  " style="fill:none"/> 
 </g> 
 <g> 
 <path d=" M  315.6211 10.56361 L  338.79219 103.24736  " style="fill:none"/> 
 </g> 
 <g> 
 <path d=" M  308.94553 10.08655 L  260.12312 132.14253  " style="fill:none"/> 
 </g> 
 <g> 
 <path d=" M  332.70029 107.26155 L  236.31299 34.97133  " style="fill:none"/> 
 </g> 
 <g> 
 <path d=" M  253.43396 131.7001 L  230.26286 39.01636  " style="fill:none"/> 
 </g> 
 </g> 
 </g> 
 </g> 
 </g> 
 </g> 
 </g> 
 </g> 
 
                                                                                                                                                 </g> 
</svg> 
