<?xml version="1.0" encoding="iso-8859-1" standalone="no"?> 
<?xml-stylesheet href="storyboard.css" type="text/css"?> 
<svg xmlns="http://www.w3.org/2000/svg" xmlns:xlink="http://www.w3.org/1999/xlink" width="135.01096pt" height="120.60007pt" viewBox="-67.50548 -59.8817 135.01096 120.60007 "> 
<g transform="translate(0, 60.71837 ) scale(1,-1) translate(0,59.8817 )"> 
                       <g> 
 <g stroke="rgb(0.0%,0.0%,0.0%)"> 
 <g fill="rgb(0.0%,0.0%,0.0%)"> 
 <g stroke-width="0.4pt"> 
 <g> 
 <g stroke-width="1.2pt"> 
 <g> 
 <path d=" M  39.2894 49.28171 C  39.2894 55.26671 34.43773 60.11838 28.45273 60.11838 C  22.46773 60.11838 17.61606 55.26671 17.61606 49.28171 C  17.61606 43.2967 22.46773 38.44504 28.45273 38.44504 C  34.43773 38.44504 39.2894 43.2967 39.2894 49.28171 Z M  28.45273 49.28171  " style="fill:none"/> 
 <g> 
 <g transform="matrix(1.0,0.0,0.0,1.0,22.70474,47.50272)"> 
 <g fill="rgb(0.0%,0.0%,0.0%)"> 
 <text style="stroke:none" transform="scale(1,-1) translate(5.74799,0)" text-anchor="middle"  font-size="10.95"> 
<tspan font-family="Cantarell-Regular-t1" font-size="">root</tspan></text> 
</g> 
 </g> 
 </g> 
 </g> 
 <g> 
 <path d=" M  -18.45273 49.28171 C  -18.45273 54.80463 -22.92981 59.28171 -28.45273 59.28171 C  -33.97565 59.28171 -38.45273 54.80463 -38.45273 49.28171 C  -38.45273 43.75879 -33.97565 39.28171 -28.45273 39.28171 C  -22.92981 39.28171 -18.45273 43.75879 -18.45273 49.28171 Z M  -28.45273 49.28171  " style="fill:none"/> 
 <g> 
 <g transform="matrix(1.0,0.0,0.0,1.0,-28.45273,49.28171)"> 
 <g fill="rgb(0.0%,0.0%,0.0%)"> 
 <text style="stroke:none" transform="scale(1,-1) translate(0.0,0)" text-anchor="middle"  font-size="10.95"> 
</text> 
</g> 
 </g> 
 </g> 
 </g> 
 <g> 
 <path d=" M  -46.90549 0.0 C  -46.90549 5.52292 -51.38257 10.0 -56.90549 10.0 C  -62.4284 10.0 -66.90549 5.52292 -66.90549 0.0 C  -66.90549 -5.52292 -62.4284 -10.0 -56.90549 -10.0 C  -51.38257 -10.0 -46.90549 -5.52292 -46.90549 0.0 Z M  -56.90549 0.0  " style="fill:none"/> 
 <g> 
 <g transform="matrix(1.0,0.0,0.0,1.0,-56.90549,0.0)"> 
 <g fill="rgb(0.0%,0.0%,0.0%)"> 
 <text style="stroke:none" transform="scale(1,-1) translate(0.0,0)" text-anchor="middle"  font-size="10.95"> 
</text> 
</g> 
 </g> 
 </g> 
 </g> 
 <g> 
 <path d=" M  -18.45273 -49.28171 C  -18.45273 -43.75879 -22.92981 -39.28171 -28.45273 -39.28171 C  -33.97565 -39.28171 -38.45273 -43.75879 -38.45273 -49.28171 C  -38.45273 -54.80463 -33.97565 -59.28171 -28.45273 -59.28171 C  -22.92981 -59.28171 -18.45273 -54.80463 -18.45273 -49.28171 Z M  -28.45273 -49.28171  " style="fill:none"/> 
 <g> 
 <g transform="matrix(1.0,0.0,0.0,1.0,-28.45273,-49.28171)"> 
 <g fill="rgb(0.0%,0.0%,0.0%)"> 
 <text style="stroke:none" transform="scale(1,-1) translate(0.0,0)" text-anchor="middle"  font-size="10.95"> 
</text> 
</g> 
 </g> 
 </g> 
 </g> 
 <g> 
 <path d=" M  38.45273 -49.28171 C  38.45273 -43.75879 33.97565 -39.28171 28.45273 -39.28171 C  22.92981 -39.28171 18.45273 -43.75879 18.45273 -49.28171 C  18.45273 -54.80463 22.92981 -59.28171 28.45273 -59.28171 C  33.97565 -59.28171 38.45273 -54.80463 38.45273 -49.28171 Z M  28.45273 -49.28171  " style="fill:none"/> 
 <g> 
 <g transform="matrix(1.0,0.0,0.0,1.0,28.45273,-49.28171)"> 
 <g fill="rgb(0.0%,0.0%,0.0%)"> 
 <text style="stroke:none" transform="scale(1,-1) translate(0.0,0)" text-anchor="middle"  font-size="10.95"> 
</text> 
</g> 
 </g> 
 </g> 
 </g> 
 <g> 
 <path d=" M  66.90549 0.0 C  66.90549 5.52292 62.4284 10.0 56.90549 10.0 C  51.38257 10.0 46.90549 5.52292 46.90549 0.0 C  46.90549 -5.52292 51.38257 -10.0 56.90549 -10.0 C  62.4284 -10.0 66.90549 -5.52292 66.90549 0.0 Z M  56.90549 0.0  " style="fill:none"/> 
 <g> 
 <g transform="matrix(1.0,0.0,0.0,1.0,56.90549,0.0)"> 
 <g fill="rgb(0.0%,0.0%,0.0%)"> 
 <text style="stroke:none" transform="scale(1,-1) translate(0.0,0)" text-anchor="middle"  font-size="10.95"> 
</text> 
</g> 
 </g> 
 </g> 
 </g> 
 <g> 
 <path d=" M  16.05606 49.28171 L  -17.85272 49.28171  " style="fill:none"/> 
 <g> 
 <g transform="matrix(1.0,0.0,0.0,1.0,16.05606,49.28171)"> 
 <g> 
 <g stroke-width="0.95999pt"> 
 <g stroke-dasharray="none" stroke-dashoffset="0.0pt"> 
 <g stroke-linecap="round"> 
 <g stroke-linejoin="round"> 
 <path d=" M  -1.92 2.56 C  -1.76 1.59999 0.0 0.15999 0.48 0.0 C  0.0 -0.15999 -1.76 -1.59999 -1.92 -2.56  " style="fill:none"/> 
 </g> 
 </g> 
 </g> 
 </g> 
 </g> 
  </g> 
 </g> 
 </g> 
 <g> 
 <path d=" M  34.67122 38.51181 L  51.58899 9.20898  " style="fill:none"/> 
 <g> 
 <g transform="matrix(-0.50157,0.86877,-0.86877,-0.50157,34.67123,38.51181)"> 
 <g> 
 <g stroke-width="0.95999pt"> 
 <g stroke-dasharray="none" stroke-dashoffset="0.0pt"> 
 <g stroke-linecap="round"> 
 <g stroke-linejoin="round"> 
 <path d=" M  -1.92 2.56 C  -1.76 1.59999 0.0 0.15999 0.48 0.0 C  0.0 -0.15999 -1.76 -1.59999 -1.92 -2.56  " style="fill:none"/> 
 </g> 
 </g> 
 </g> 
 </g> 
 </g> 
  </g> 
 </g> 
 </g> 
 <g> 
 <path d=" M  -34.25156 39.23868 L  -51.58899 9.20898  " style="fill:none"/> 
 <g> 
 <g transform="matrix(0.50162,0.86877,-0.86877,0.50162,-34.25157,39.23868)"> 
 <g> 
 <g stroke-width="0.95999pt"> 
 <g stroke-dasharray="none" stroke-dashoffset="0.0pt"> 
 <g stroke-linecap="round"> 
 <g stroke-linejoin="round"> 
 <path d=" M  -1.92 2.56 C  -1.76 1.59999 0.0 0.15999 0.48 0.0 C  0.0 -0.15999 -1.76 -1.59999 -1.92 -2.56  " style="fill:none"/> 
 </g> 
 </g> 
 </g> 
 </g> 
 </g> 
  </g> 
 </g> 
 </g> 
 <g> 
 <path d=" M  -28.45273 37.72171 L  -28.45273 -38.6817  " style="fill:none"/> 
 <g> 
 <g transform="matrix(0.0,1.0,-1.0,0.0,-28.45273,37.72171)"> 
 <g> 
 <g stroke-width="0.95999pt"> 
 <g stroke-dasharray="none" stroke-dashoffset="0.0pt"> 
 <g stroke-linecap="round"> 
 <g stroke-linejoin="round"> 
 <path d=" M  -1.92 2.56 C  -1.76 1.59999 0.0 0.15999 0.48 0.0 C  0.0 -0.15999 -1.76 -1.59999 -1.92 -2.56  " style="fill:none"/> 
 </g> 
 </g> 
 </g> 
 </g> 
 </g> 
  </g> 
 </g> 
 </g> 
 <g> 
 <path d=" M  51.10666 -10.043 L  33.7692 -40.0727  " style="fill:none"/> 
 <g> 
 <g transform="matrix(0.50162,0.86877,-0.86877,0.50162,51.10664,-10.043)"> 
 <g> 
 <g stroke-width="0.95999pt"> 
 <g stroke-dasharray="none" stroke-dashoffset="0.0pt"> 
 <g stroke-linecap="round"> 
 <g stroke-linejoin="round"> 
 <path d=" M  -1.92 2.56 C  -1.76 1.59999 0.0 0.15999 0.48 0.0 C  0.0 -0.15999 -1.76 -1.59999 -1.92 -2.56  " style="fill:none"/> 
 </g> 
 </g> 
 </g> 
 </g> 
 </g> 
  </g> 
 </g> 
 </g> 
 </g> 
 </g> 
 </g> 
 </g> 
 </g> 
 </g> 
 
                                                                                  </g> 
</svg> 
