<?xml version="1.0" encoding="iso-8859-1" standalone="no"?> 
<?xml-stylesheet href="script.css" type="text/css"?> 
<svg xmlns="http://www.w3.org/2000/svg" xmlns:xlink="http://www.w3.org/1999/xlink" width="125.01096pt" height="109.7634pt" viewBox="-62.50548 -54.8817 125.01096 109.7634 "> 
<g transform="translate(0, 54.8817 ) scale(1,-1) translate(0,54.8817 )"> 
                            <g> 
 <g stroke="rgb(0.0%,0.0%,0.0%)"> 
 <g fill="rgb(0.0%,0.0%,0.0%)"> 
 <g stroke-width="0.4pt"> 
 <g> 
 <g stroke-width="1.2pt"> 
 <g> 
 <path d=" M  33.45273 49.28171 C  33.45273 52.04317 31.21419 54.28171 28.45273 54.28171 C  25.69127 54.28171 23.45273 52.04317 23.45273 49.28171 C  23.45273 46.52025 25.69127 44.28171 28.45273 44.28171 C  31.21419 44.28171 33.45273 46.52025 33.45273 49.28171 Z M  28.45273 49.28171  " style="fill:none"/> 
 <g> 
 <g transform="matrix(1.0,0.0,0.0,1.0,28.45273,49.28171)"> 
 <g fill="rgb(0.0%,0.0%,0.0%)"> 
 <text style="stroke:none" transform="scale(1,-1) translate(0.0,0)" text-anchor="middle"  font-size="10"> 
</text> 
</g> 
 </g> 
 </g> 
 </g> 
 <g> 
 <path d=" M  -23.45273 49.28171 C  -23.45273 52.04317 -25.69127 54.28171 -28.45273 54.28171 C  -31.21419 54.28171 -33.45273 52.04317 -33.45273 49.28171 C  -33.45273 46.52025 -31.21419 44.28171 -28.45273 44.28171 C  -25.69127 44.28171 -23.45273 46.52025 -23.45273 49.28171 Z M  -28.45273 49.28171  " style="fill:none"/> 
 <g> 
 <g transform="matrix(1.0,0.0,0.0,1.0,-28.45273,49.28171)"> 
 <g fill="rgb(0.0%,0.0%,0.0%)"> 
 <text style="stroke:none" transform="scale(1,-1) translate(0.0,0)" text-anchor="middle"  font-size="10"> 
</text> 
</g> 
 </g> 
 </g> 
 </g> 
 <g> 
 <path d=" M  -51.90549 0.0 C  -51.90549 2.76146 -54.14403 5.0 -56.90549 5.0 C  -59.66695 5.0 -61.90549 2.76146 -61.90549 0.0 C  -61.90549 -2.76146 -59.66695 -5.0 -56.90549 -5.0 C  -54.14403 -5.0 -51.90549 -2.76146 -51.90549 0.0 Z M  -56.90549 0.0  " style="fill:none"/> 
 <g> 
 <g transform="matrix(1.0,0.0,0.0,1.0,-56.90549,0.0)"> 
 <g fill="rgb(0.0%,0.0%,0.0%)"> 
 <text style="stroke:none" transform="scale(1,-1) translate(0.0,0)" text-anchor="middle"  font-size="10"> 
</text> 
</g> 
 </g> 
 </g> 
 </g> 
 <g> 
 <path d=" M  -23.45273 -49.28171 C  -23.45273 -46.52025 -25.69127 -44.28171 -28.45273 -44.28171 C  -31.21419 -44.28171 -33.45273 -46.52025 -33.45273 -49.28171 C  -33.45273 -52.04317 -31.21419 -54.28171 -28.45273 -54.28171 C  -25.69127 -54.28171 -23.45273 -52.04317 -23.45273 -49.28171 Z M  -28.45273 -49.28171  " style="fill:none"/> 
 <g> 
 <g transform="matrix(1.0,0.0,0.0,1.0,-28.45273,-49.28171)"> 
 <g fill="rgb(0.0%,0.0%,0.0%)"> 
 <text style="stroke:none" transform="scale(1,-1) translate(0.0,0)" text-anchor="middle"  font-size="10"> 
</text> 
</g> 
 </g> 
 </g> 
 </g> 
 <g> 
 <path d=" M  33.45273 -49.28171 C  33.45273 -46.52025 31.21419 -44.28171 28.45273 -44.28171 C  25.69127 -44.28171 23.45273 -46.52025 23.45273 -49.28171 C  23.45273 -52.04317 25.69127 -54.28171 28.45273 -54.28171 C  31.21419 -54.28171 33.45273 -52.04317 33.45273 -49.28171 Z M  28.45273 -49.28171  " style="fill:none"/> 
 <g> 
 <g transform="matrix(1.0,0.0,0.0,1.0,28.45273,-49.28171)"> 
 <g fill="rgb(0.0%,0.0%,0.0%)"> 
 <text style="stroke:none" transform="scale(1,-1) translate(0.0,0)" text-anchor="middle"  font-size="10"> 
</text> 
</g> 
 </g> 
 </g> 
 </g> 
 <g> 
 <path d=" M  61.90549 0.0 C  61.90549 2.76146 59.66695 5.0 56.90549 5.0 C  54.14403 5.0 51.90549 2.76146 51.90549 0.0 C  51.90549 -2.76146 54.14403 -5.0 56.90549 -5.0 C  59.66695 -5.0 61.90549 -2.76146 61.90549 0.0 Z M  56.90549 0.0  " style="fill:none"/> 
 <g> 
 <g transform="matrix(1.0,0.0,0.0,1.0,56.90549,0.0)"> 
 <g fill="rgb(0.0%,0.0%,0.0%)"> 
 <text style="stroke:none" transform="scale(1,-1) translate(0.0,0)" text-anchor="middle"  font-size="10"> 
</text> 
</g> 
 </g> 
 </g> 
 </g> 
 <g> 
 <path d=" M  22.85272 49.28171 L  -22.85272 49.28171  " style="fill:none"/> 
 </g> 
 <g> 
 <path d=" M  23.58759 46.47284 L  -52.04034 2.80887  " style="fill:none"/> 
 </g> 
 <g> 
 <path d=" M  25.64386 44.41656 L  -25.64401 -44.41656  " style="fill:none"/> 
 </g> 
 <g> 
 <path d=" M  28.45273 43.6817 L  28.45273 -43.6817  " style="fill:none"/> 
 </g> 
 <g> 
 <path d=" M  31.2616 44.41656 L  54.09677 4.86511  " style="fill:none"/> 
 </g> 
 <g> 
 <path d=" M  -31.2616 44.41656 L  -54.09677 4.86511  " style="fill:none"/> 
 </g> 
 <g> 
 <path d=" M  -28.45273 43.6817 L  -28.45273 -43.6817  " style="fill:none"/> 
 </g> 
 <g> 
 <path d=" M  -25.64386 44.41656 L  25.64401 -44.41656  " style="fill:none"/> 
 </g> 
 <g> 
 <path d=" M  -23.58759 46.47284 L  52.04034 2.80887  " style="fill:none"/> 
 </g> 
 <g> 
 <path d=" M  -54.09662 -4.86511 L  -31.26141 -44.41656  " style="fill:none"/> 
 </g> 
 <g> 
 <path d=" M  -52.04034 -2.80887 L  23.58759 -46.47284  " style="fill:none"/> 
 </g> 
 <g> 
 <path d=" M  -51.30548 0.0 L  51.30548 0.0  " style="fill:none"/> 
 </g> 
 <g> 
 <path d=" M  -22.85272 -49.28171 L  22.85272 -49.28171  " style="fill:none"/> 
 </g> 
 <g> 
 <path d=" M  -23.58759 -46.47284 L  52.04034 -2.80887  " style="fill:none"/> 
 </g> 
 <g> 
 <path d=" M  31.2616 -44.41656 L  54.09677 -4.86511  " style="fill:none"/> 
 </g> 
 </g> 
 </g> 
 </g> 
 </g> 
 </g> 
 </g> 
 
                                                        </g> 
</svg> 
